# xmcd
#
# Track frame offsets:
#	150
#	11578
#	28100
#	40551
#	53484
#	63228
#	76281
#	87009
#	99007
#	112619
#	125543
#	139127
#	150521
#	173748
#
# Disc length: 2495 seconds
#
# Revision: 1
# Processed by: cddbd v1.5.2PL0 Copyright (c) Steve Scherf et al.
# Submitted via: audiograbber 1.83.01
#
DISCID=9309bd0e
DTITLE=Marc Reift Orchestra - Marc Reift - Oh Happy Day
DYEAR=1900
DGENRE=Soul
TTITLE0=Oh Happy Day (Traditional, D. Armitage)
TTITLE1=Gloryland (S. Richards)
TTITLE2=Go Down Moses (Traditional, D. Armitage)
TTITLE3=Nobody Knows The Trouble I´ve Seen (Traditional, D. Armitage)
TTITLE4=Swing Low, Sweet Chariot (Traditional, D. Armitage)
TTITLE5=Deep River (Traditional, D. Armitage)
TTITLE6=Over In The Gloryland (Traditional, D. Armitage)
TTITLE7=Sometimes I Feel Like A Motherless Child (Traditional, D. Armitage)
TTITLE8=Down By The Riverside (Traditional, D. Armitage)
TTITLE9=Amen (Traditional, D. Armitage)
TTITLE10=Josuha Fit The Battle Of Jericho (Traditional, D. Armitage)
TTITLE11=Lil´ Liza Jane (Traditional, D. Armitage)
TTITLE12=A Gospel Voyage (D. Armitage)
TTITLE13=The Saints (Traditional, D. Armitage)
EXTD=
EXTT0=
EXTT1=
EXTT2=
EXTT3=
EXTT4=
EXTT5=
EXTT6=
EXTT7=
EXTT8=
EXTT9=
EXTT10=
EXTT11=
EXTT12=
EXTT13=
PLAYORDER=
